<svg width="79" height="92" viewBox="0 0 79 92" fill="none">
    <g>
        <path d="M73.0367 87.0477H61.9515V85.3686H71.3807V67.1216C71.3807 64.268 69.0917 61.9447 66.2751 61.9447H11.5854C8.77109 61.9447 6.47974 64.2657 6.47974 67.1216V85.3686H42.7996V87.0477H4.82373V67.1216C4.82373 63.3424 7.85593 60.2656 11.5854 60.2656H66.2751C70.0022 60.2656 73.0367 63.3401 73.0367 67.1216V87.0477Z" fill="white"/>
        <path d="M10.4636 41.7715H3.88773C1.74317 41.7715 0 39.8971 0 37.5924V23.7339C0 21.4292 1.74317 19.5547 3.88773 19.5547H10.4659V21.2338H3.88773C2.65833 21.2338 1.65601 22.3548 1.65601 23.7339V37.5924C1.65601 38.9715 2.65604 40.0924 3.88773 40.0924H10.4659V41.7715H10.4636Z" fill="white"/>
        <path d="M75.1124 41.7715H68.5342V40.0924H75.1124C76.3418 40.0924 77.3441 38.9715 77.3441 37.5924V23.7339C77.3441 22.3548 76.344 21.2338 75.1124 21.2338H68.5342V19.5547H75.1124C77.2569 19.5547 79.0001 21.4292 79.0001 23.7339V37.5924C79.0001 39.8971 77.2569 41.7715 75.1124 41.7715Z" fill="white"/>
        <path d="M47.8592 61.9464H30.5078V50.7461H47.8592V61.9464ZM32.1638 60.2673H46.2032V52.4252H32.1638V60.2673Z" fill="white"/>
        <path d="M58.0591 52.2195H20.308C14.3721 52.2195 9.54395 47.324 9.54395 41.3053V19.8908C9.54395 13.872 14.3721 8.97656 20.308 8.97656H58.0591C63.9951 8.97656 68.8232 13.872 68.8232 19.8908V41.3076C68.8232 47.3264 63.9951 52.2218 58.0591 52.2218V52.2195ZM20.308 10.6557C15.2872 10.6557 11.2 14.7976 11.2 19.8908V41.3076C11.2 46.3984 15.2849 50.5427 20.308 50.5427H58.0591C63.0799 50.5427 67.1672 46.4008 67.1672 41.3076V19.8908C67.1672 14.8 63.0822 10.6557 58.0591 10.6557H20.308Z" fill="white"/>
        <path d="M25.6272 31.8745C23.6202 31.8745 21.9849 30.2187 21.9849 28.1814C21.9849 26.1441 23.6179 24.4883 25.6272 24.4883C27.6364 24.4883 29.2695 26.1441 29.2695 28.1814C29.2695 30.2187 27.6364 31.8745 25.6272 31.8745ZM25.6272 26.1697C24.5331 26.1697 23.6409 27.0721 23.6409 28.1837C23.6409 29.2954 24.5308 30.1977 25.6272 30.1977C26.7235 30.1977 27.6135 29.2954 27.6135 28.1837C27.6135 27.0721 26.7235 26.1697 25.6272 26.1697Z" fill="white"/>
        <path d="M53.3156 31.8745C51.3087 31.8745 49.6733 30.2187 49.6733 28.1814C49.6733 26.1441 51.3064 24.4883 53.3156 24.4883C55.3249 24.4883 56.9557 26.1441 56.9557 28.1814C56.9557 30.2187 55.3226 31.8745 53.3156 31.8745ZM53.3156 26.1697C52.2216 26.1697 51.3293 27.0721 51.3293 28.1837C51.3293 29.2954 52.2193 30.1977 53.3156 30.1977C54.412 30.1977 55.2996 29.2954 55.2996 28.1837C55.2996 27.0721 54.4097 26.1697 53.3156 26.1697Z" fill="white"/>
        <path d="M39.1849 43.5193C35.6366 43.5193 32.3086 41.5936 30.4966 38.4959L31.9209 37.64C33.4347 40.2308 36.2169 41.8401 39.1826 41.8401C42.1483 41.8401 45.1209 40.1261 46.6003 37.3633L48.0567 38.1656C46.2883 41.468 42.8868 43.5193 39.1849 43.5193Z" fill="white"/>
        <path d="M5.3303 7.38391C3.32336 7.38391 1.68799 5.72805 1.68799 3.69079C1.68799 1.65353 3.32336 0 5.3303 0C7.33723 0 8.9726 1.65586 8.9726 3.69312C8.9726 5.73038 7.33953 7.38623 5.3303 7.38623V7.38391ZM5.3303 1.67911C4.23623 1.67911 3.344 2.58146 3.344 3.69312C3.344 4.80477 4.23393 5.70712 5.3303 5.70712C6.42666 5.70712 7.31659 4.80477 7.31659 3.69312C7.31659 2.58146 6.42666 1.67911 5.3303 1.67911Z" fill="white"/>
        <path d="M6.15845 6.54297H4.50244V20.3922H6.15845V6.54297Z" fill="white"/>
        <path d="M73.0365 7.38233C71.0296 7.38233 69.3965 5.72647 69.3965 3.68921C69.3965 1.65195 71.0296 -0.00390625 73.0365 -0.00390625C75.0434 -0.00390625 76.6788 1.65195 76.6788 3.68921C76.6788 5.72647 75.0457 7.38233 73.0365 7.38233ZM73.0365 1.67753C71.9424 1.67753 71.0525 2.57988 71.0525 3.69154C71.0525 4.80319 71.9424 5.70554 73.0365 5.70554C74.1306 5.70554 75.0228 4.80319 75.0228 3.69154C75.0228 2.57988 74.1329 1.67753 73.0365 1.67753Z" fill="white"/>
        <path d="M73.8645 6.54297H72.2085V20.3922H73.8645V6.54297Z" fill="white"/>
        <path d="M52.302 82.0293C52.6071 81.7317 52.8731 81.4061 53.2034 81.1549C54.8594 79.8991 57.2448 80.313 58.3274 82.0386C59.215 83.455 59.1531 84.8969 58.4077 86.3434C58.0269 87.0853 57.4719 87.6969 56.8182 88.2411C55.3388 89.4737 53.8686 90.7156 52.396 91.9529C52.3777 91.9668 52.3593 91.9808 52.3295 92.0017C51.9396 91.6691 51.5497 91.3389 51.1621 91.0063C50.0267 90.0365 48.8913 89.0691 47.7583 88.0993C46.6986 87.1946 45.9876 86.0899 45.8133 84.7503C45.6183 83.255 46.0977 81.9526 47.4142 81.027C48.9693 79.9339 51.1529 80.3595 52.2332 81.9247C52.263 81.9666 52.2905 82.0084 52.3043 82.0293H52.302Z" fill="#E1121C"/>
    </g>
    <defs>
        <clipPath id="clip0_725_19442">
            <rect width="79" height="92" fill="white"/>
        </clipPath>
    </defs>
</svg>
